<svg width="148" height="29" viewBox="0 0 148 29" fill="none" xmlns="http://www.w3.org/2000/svg">
<path d="M2.224 23C1.73333 23 1.33867 22.8613 1.04 22.584C0.762667 22.3067 0.624 21.9333 0.624 21.464V1.944C0.624 1.45333 0.773333 1.05866 1.072 0.759998C1.37067 0.439999 1.76533 0.279999 2.256 0.279999C2.768 0.279999 3.17333 0.429332 3.472 0.727999C3.77067 1.02667 3.92 1.432 3.92 1.944V20.248H13.648C14.1387 20.248 14.512 20.3653 14.768 20.6C15.0453 20.8347 15.184 21.176 15.184 21.624C15.184 22.072 15.0453 22.4133 14.768 22.648C14.512 22.8827 14.1387 23 13.648 23H2.224ZM24.4615 23.224C22.9255 23.224 21.5708 22.8933 20.3975 22.232C19.2455 21.5707 18.3495 20.632 17.7095 19.416C17.0908 18.1787 16.7815 16.7493 16.7815 15.128C16.7815 13.4853 17.0908 12.056 17.7095 10.84C18.3495 9.60267 19.2455 8.65333 20.3975 7.992C21.5708 7.33067 22.9255 7 24.4615 7C25.9975 7 27.3415 7.33067 28.4935 7.992C29.6668 8.65333 30.5628 9.60267 31.1815 10.84C31.8215 12.056 32.1415 13.4853 32.1415 15.128C32.1415 16.7493 31.8215 18.1787 31.1815 19.416C30.5628 20.632 29.6668 21.5707 28.4935 22.232C27.3415 22.8933 25.9975 23.224 24.4615 23.224ZM24.4615 20.664C25.8908 20.664 26.9788 20.1947 27.7255 19.256C28.4935 18.3173 28.8775 16.9413 28.8775 15.128C28.8775 13.336 28.4935 11.9707 27.7255 11.032C26.9575 10.072 25.8695 9.592 24.4615 9.592C23.0535 9.592 21.9655 10.072 21.1975 11.032C20.4295 11.9707 20.0455 13.336 20.0455 15.128C20.0455 16.9413 20.4188 18.3173 21.1655 19.256C21.9335 20.1947 23.0322 20.664 24.4615 20.664ZM48.668 7.064C49.1587 7.064 49.5427 7.21333 49.82 7.512C50.1187 7.78933 50.268 8.16267 50.268 8.632V21.752C50.268 24.1413 49.628 25.944 48.348 27.16C47.0893 28.376 45.2227 28.984 42.748 28.984C40.444 28.984 38.524 28.5467 36.988 27.672C36.1987 27.224 35.804 26.6907 35.804 26.072C35.804 25.7093 35.9 25.4107 36.092 25.176C36.3053 24.9413 36.5613 24.824 36.86 24.824C37.1373 24.824 37.5747 24.984 38.172 25.304C38.94 25.6667 39.6547 25.944 40.316 26.136C40.9773 26.3493 41.7667 26.456 42.684 26.456C45.628 26.456 47.1 24.9733 47.1 22.008V19.544C46.652 20.4827 45.9693 21.2187 45.052 21.752C44.1347 22.264 43.068 22.52 41.852 22.52C40.4867 22.52 39.2707 22.2 38.204 21.56C37.1373 20.92 36.3053 20.0133 35.708 18.84C35.132 17.6667 34.844 16.312 34.844 14.776C34.844 13.24 35.1427 11.8853 35.74 10.712C36.3373 9.53867 37.1587 8.632 38.204 7.992C39.2707 7.33067 40.4867 7 41.852 7C43.0467 7 44.092 7.256 44.988 7.768C45.9053 8.28 46.5987 9.00533 47.068 9.944V8.6C47.068 8.13067 47.2067 7.75733 47.484 7.48C47.7827 7.20267 48.1773 7.064 48.668 7.064ZM42.62 19.96C44.0067 19.96 45.0947 19.5013 45.884 18.584C46.6733 17.6667 47.068 16.3973 47.068 14.776C47.068 13.176 46.6733 11.9173 45.884 11C45.116 10.0613 44.028 9.592 42.62 9.592C41.212 9.592 40.1027 10.0507 39.292 10.968C38.5027 11.8853 38.108 13.1547 38.108 14.776C38.108 16.3973 38.5133 17.6667 39.324 18.584C40.1347 19.5013 41.2333 19.96 42.62 19.96ZM61.5553 23.224C60.0193 23.224 58.6646 22.8933 57.4913 22.232C56.3393 21.5707 55.4433 20.632 54.8033 19.416C54.1846 18.1787 53.8753 16.7493 53.8753 15.128C53.8753 13.4853 54.1846 12.056 54.8033 10.84C55.4433 9.60267 56.3393 8.65333 57.4913 7.992C58.6646 7.33067 60.0193 7 61.5553 7C63.0913 7 64.4353 7.33067 65.5873 7.992C66.7606 8.65333 67.6566 9.60267 68.2753 10.84C68.9153 12.056 69.2353 13.4853 69.2353 15.128C69.2353 16.7493 68.9153 18.1787 68.2753 19.416C67.6566 20.632 66.7606 21.5707 65.5873 22.232C64.4353 22.8933 63.0913 23.224 61.5553 23.224ZM61.5553 20.664C62.9846 20.664 64.0726 20.1947 64.8193 19.256C65.5873 18.3173 65.9713 16.9413 65.9713 15.128C65.9713 13.336 65.5873 11.9707 64.8193 11.032C64.0513 10.072 62.9633 9.592 61.5553 9.592C60.1473 9.592 59.0593 10.072 58.2913 11.032C57.5233 11.9707 57.1393 13.336 57.1393 15.128C57.1393 16.9413 57.5126 18.3173 58.2593 19.256C59.0273 20.1947 60.1259 20.664 61.5553 20.664Z" fill="#173748"/>
<path d="M99.1593 0.279999C99.6499 0.279999 100.045 0.439999 100.343 0.759998C100.642 1.05866 100.791 1.45333 100.791 1.944V21.496C100.791 21.9867 100.642 22.392 100.343 22.712C100.045 23.0107 99.6499 23.16 99.1593 23.16C98.6686 23.16 98.2739 23.0107 97.9753 22.712C97.6766 22.4133 97.5273 22.008 97.5273 21.496V12.888H84.9193V21.496C84.9193 21.9867 84.7699 22.392 84.4713 22.712C84.1726 23.0107 83.7779 23.16 83.2873 23.16C82.7966 23.16 82.4019 23.0107 82.1033 22.712C81.8046 22.4133 81.6553 22.008 81.6553 21.496V1.944C81.6553 1.45333 81.8046 1.05866 82.1033 0.759998C82.4019 0.439999 82.7966 0.279999 83.2873 0.279999C83.7779 0.279999 84.1726 0.439999 84.4713 0.759998C84.7699 1.05866 84.9193 1.45333 84.9193 1.944V10.2H97.5273V1.944C97.5273 1.45333 97.6766 1.05866 97.9753 0.759998C98.2739 0.439999 98.6686 0.279999 99.1593 0.279999ZM117.87 19.064C118.169 19.064 118.414 19.1813 118.606 19.416C118.798 19.6507 118.894 19.9493 118.894 20.312C118.894 20.9307 118.51 21.4533 117.742 21.88C116.996 22.3067 116.174 22.6373 115.278 22.872C114.404 23.1067 113.561 23.224 112.75 23.224C110.276 23.224 108.324 22.5093 106.894 21.08C105.465 19.6293 104.75 17.656 104.75 15.16C104.75 13.56 105.06 12.1413 105.678 10.904C106.318 9.66667 107.204 8.70667 108.334 8.024C109.486 7.34133 110.788 7 112.238 7C114.329 7 115.982 7.672 117.198 9.016C118.414 10.36 119.022 12.1733 119.022 14.456C119.022 15.3093 118.638 15.736 117.87 15.736H107.982C108.196 19.0427 109.785 20.696 112.75 20.696C113.54 20.696 114.222 20.5893 114.798 20.376C115.374 20.1627 115.982 19.8853 116.622 19.544C116.686 19.5013 116.857 19.416 117.134 19.288C117.433 19.1387 117.678 19.064 117.87 19.064ZM112.302 9.368C111.065 9.368 110.073 9.76267 109.326 10.552C108.58 11.3413 108.132 12.4507 107.982 13.88H116.238C116.174 12.4293 115.801 11.32 115.118 10.552C114.457 9.76267 113.518 9.368 112.302 9.368ZM130.776 7.064C131.8 7 132.312 7.43733 132.312 8.376C132.312 8.84533 132.194 9.19733 131.96 9.432C131.725 9.66667 131.32 9.80533 130.744 9.848L129.784 9.944C128.44 10.072 127.437 10.5413 126.776 11.352C126.136 12.1627 125.816 13.144 125.816 14.296V21.624C125.816 22.136 125.666 22.52 125.368 22.776C125.069 23.032 124.685 23.16 124.216 23.16C123.746 23.16 123.352 23.032 123.032 22.776C122.733 22.52 122.584 22.136 122.584 21.624V8.6C122.584 8.10933 122.733 7.736 123.032 7.48C123.352 7.20267 123.746 7.064 124.216 7.064C124.642 7.064 124.994 7.20267 125.272 7.48C125.57 7.736 125.72 8.09867 125.72 8.568V10.104C126.146 9.16533 126.765 8.45067 127.576 7.96C128.386 7.46933 129.304 7.18133 130.328 7.096L130.776 7.064ZM146.214 19.064C146.513 19.064 146.758 19.1813 146.95 19.416C147.142 19.6507 147.238 19.9493 147.238 20.312C147.238 20.9307 146.854 21.4533 146.086 21.88C145.339 22.3067 144.518 22.6373 143.622 22.872C142.747 23.1067 141.905 23.224 141.094 23.224C138.619 23.224 136.667 22.5093 135.238 21.08C133.809 19.6293 133.094 17.656 133.094 15.16C133.094 13.56 133.403 12.1413 134.022 10.904C134.662 9.66667 135.547 8.70667 136.678 8.024C137.83 7.34133 139.131 7 140.582 7C142.673 7 144.326 7.672 145.542 9.016C146.758 10.36 147.366 12.1733 147.366 14.456C147.366 15.3093 146.982 15.736 146.214 15.736H136.326C136.539 19.0427 138.129 20.696 141.094 20.696C141.883 20.696 142.566 20.5893 143.142 20.376C143.718 20.1627 144.326 19.8853 144.966 19.544C145.03 19.5013 145.201 19.416 145.478 19.288C145.777 19.1387 146.022 19.064 146.214 19.064ZM140.646 9.368C139.409 9.368 138.417 9.76267 137.67 10.552C136.923 11.3413 136.475 12.4507 136.326 13.88H144.582C144.518 12.4293 144.145 11.32 143.462 10.552C142.801 9.76267 141.862 9.368 140.646 9.368Z" fill="#7BBA26"/>
</svg>
